<svg width="30" height="31" viewBox="0 0 30 31" fill="none" xmlns="http://www.w3.org/2000/svg">
<g clip-path="url(#clip0_454_70)">
<path d="M0.921386 19.189C1.16575 19.189 1.40011 19.286 1.5729 19.4588C1.7457 19.6316 1.84277 19.866 1.84277 20.1104V24.7173C1.84277 25.206 2.03692 25.6747 2.38251 26.0203C2.7281 26.3659 3.19681 26.5601 3.68555 26.5601H25.7988C26.2876 26.5601 26.7563 26.3659 27.1019 26.0203C27.4474 25.6747 27.6416 25.206 27.6416 24.7173V20.1104C27.6416 19.866 27.7387 19.6316 27.9115 19.4588C28.0842 19.286 28.3186 19.189 28.563 19.189C28.8073 19.189 29.0417 19.286 29.2145 19.4588C29.3873 19.6316 29.4844 19.866 29.4844 20.1104V24.7173C29.4844 25.6948 29.0961 26.6322 28.4049 27.3234C27.7137 28.0145 26.7763 28.4028 25.7988 28.4028H3.68555C2.70808 28.4028 1.77065 28.0145 1.07947 27.3234C0.388297 26.6322 0 25.6948 0 24.7173V20.1104C0 19.866 0.0970744 19.6316 0.269868 19.4588C0.442661 19.286 0.677019 19.189 0.921386 19.189V19.189Z" fill="white"/>
<path d="M14.0898 22.79C14.1754 22.8758 14.2771 22.9439 14.389 22.9904C14.5009 23.0368 14.6209 23.0607 14.7421 23.0607C14.8633 23.0607 14.9833 23.0368 15.0953 22.9904C15.2072 22.9439 15.3089 22.8758 15.3945 22.79L20.9228 17.2617C21.0958 17.0887 21.193 16.854 21.193 16.6094C21.193 16.3647 21.0958 16.13 20.9228 15.957C20.7498 15.784 20.5151 15.6868 20.2704 15.6868C20.0258 15.6868 19.7911 15.784 19.6181 15.957L15.6635 19.9135V3.70996C15.6635 3.46559 15.5664 3.23124 15.3936 3.05844C15.2209 2.88565 14.9865 2.78857 14.7421 2.78857C14.4978 2.78857 14.2634 2.88565 14.0906 3.05844C13.9178 3.23124 13.8207 3.46559 13.8207 3.70996V19.9135L9.86615 15.957C9.69314 15.784 9.45849 15.6868 9.21381 15.6868C8.96914 15.6868 8.73448 15.784 8.56147 15.957C8.38846 16.13 8.29126 16.3647 8.29126 16.6094C8.29126 16.854 8.38846 17.0887 8.56147 17.2617L14.0898 22.79V22.79Z" fill="white"/>
</g>
<defs>
<clipPath id="clip0_454_70">
<rect width="29.4844" height="29.4844" fill="white" transform="translate(0 0.946289)"/>
</clipPath>
</defs>
</svg>
