<svg width="62" height="92" viewBox="0 0 62 92" fill="none" xmlns="http://www.w3.org/2000/svg">
<g clip-path="url(#clip0_454_103)">
<path d="M15.9321 91.1248C24.3155 91.1248 31.1195 84.3209 31.1195 75.9374V60.75H15.9321C7.5486 60.75 0.744629 67.554 0.744629 75.9374C0.744629 84.3209 7.5486 91.1248 15.9321 91.1248Z" fill="white"/>
<path d="M0.744629 45.5624C0.744629 37.179 7.5486 30.375 15.9321 30.375H31.1195V60.7498H15.9321C7.5486 60.7498 0.744629 53.9459 0.744629 45.5624Z" fill="white"/>
<path d="M0.744873 15.1874C0.744873 6.80397 7.54884 0 15.9323 0H31.1197V30.3748H15.9323C7.54884 30.3748 0.744873 23.5709 0.744873 15.1874Z" fill="white"/>
<path d="M31.1196 0H46.3071C54.6905 0 61.4945 6.80397 61.4945 15.1874C61.4945 23.5709 54.6905 30.3748 46.3071 30.3748H31.1196V0Z" fill="white"/>
<path d="M61.4945 45.5624C61.4945 53.9459 54.6905 60.7498 46.3071 60.7498C37.9236 60.7498 31.1196 53.9459 31.1196 45.5624C31.1196 37.179 37.9236 30.375 46.3071 30.375C54.6905 30.375 61.4945 37.179 61.4945 45.5624Z" fill="white"/>
</g>
<defs>
<clipPath id="clip0_454_103">
<rect width="60.7497" height="91.1245" fill="white" transform="translate(0.744873)"/>
</clipPath>
</defs>
</svg>
