<svg width="66" height="92" viewBox="0 0 66 92" fill="none" xmlns="http://www.w3.org/2000/svg">
<g clip-path="url(#clip0_454_89)">
<path d="M65.125 18.0342L59.2023 84.3838L32.5794 91.7644L6.02986 84.394L0.113281 18.0342H65.125Z" fill="white"/>
<path d="M32.6194 86.1229L54.1321 80.1589L59.1931 23.46H32.6194V86.1229Z" fill="white"/>
<path d="M21.1056 39.7374H32.6191V31.5986H12.2109L12.4056 33.7821L14.4061 56.2104H32.6191V48.0716H21.8494L21.1056 39.7374V39.7374ZM22.9399 60.2799H14.7698L15.9099 73.059L32.5817 77.6869L32.6191 77.6767V69.2089L32.5835 69.2183L23.5194 66.7709L22.9399 60.2799Z" fill="#6C6BDE"/>
<path d="M6.16211 0H10.2981V4.08633H14.0817V0H18.218V12.3744H14.082V8.23076H10.2984V12.3744H6.16236V0H6.16211ZM23.6567 4.10366H20.0161V0H31.4364V4.10366H27.7935V12.3744H23.6575V4.10366H23.6573H23.6567ZM33.2489 0H37.5615L40.2143 4.34805L42.8647 0H47.1791V12.3744H43.0599V6.24098L40.2143 10.6408H40.143L37.2957 6.24098V12.3744H33.2489V0ZM49.2374 0H53.3747V8.28428H59.1911V12.3744H49.2371V0H49.2374Z" fill="white"/>
<path d="M32.5911 56.2104H42.6131L41.6682 66.7658L32.5908 69.2158V77.683L49.2758 73.059L49.3982 71.6839L51.311 50.2571L51.5095 48.0716H32.5911V56.2104ZM32.5911 39.7175V39.7374H52.2501L52.4131 37.9082L52.7842 33.7821L52.9786 31.5986H32.5911V39.7178V39.7175Z" fill="#6C6BDE"/>
</g>
<defs>
<clipPath id="clip0_454_89">
<rect width="65.2385" height="91.9966" fill="white"/>
</clipPath>
</defs>
</svg>
