<svg width="117" height="92" viewBox="0 0 117 92" fill="none" xmlns="http://www.w3.org/2000/svg">
<g clip-path="url(#clip0_454_77)">
<path d="M13.5941 12.0227C13.3763 5.76782 18.2496 0 24.8368 0H92.3355C98.9227 0 103.796 5.76782 103.578 12.0227C103.369 18.0311 103.641 25.8143 105.599 32.1605C107.565 38.5263 110.878 42.55 116.305 43.067V48.9295C110.878 49.4466 107.565 53.4703 105.599 59.8361C103.641 66.1823 103.369 73.9655 103.578 79.9741C103.796 86.2287 98.9227 91.9966 92.3355 91.9966H24.8368C18.2496 91.9966 13.3763 86.2287 13.5943 79.9741C13.8033 73.9655 13.5316 66.1823 11.5726 59.8361C9.60779 53.4703 6.28599 49.4466 0.858643 48.9295V43.067C6.28576 42.55 9.60779 38.5263 11.5726 32.1605C13.5316 25.8143 13.8033 18.0311 13.5941 12.0227V12.0227Z" fill="white"/>
<g filter="url(#filter0_d_454_77)">
<path d="M61.0856 70.454C71.7502 70.454 78.1767 65.2323 78.1767 56.6195C78.1767 50.1092 73.5913 45.3959 66.7826 44.6498V44.3786C71.7849 43.5648 75.7103 38.9194 75.7103 33.7315C75.7103 26.3396 69.8744 21.5244 60.9814 21.5244H40.9722V70.454H61.0856ZM48.7535 27.7297H59.1056C64.7332 27.7297 67.929 30.2388 67.929 34.7825C67.929 39.6315 64.2121 42.344 57.4729 42.344H48.7535V27.7297V27.7297ZM48.7535 64.2489V48.1425H59.036C66.4004 48.1425 70.2217 50.8551 70.2217 56.1449C70.2217 61.4345 66.5048 64.2489 59.4876 64.2489H48.7535V64.2489Z" fill="#6C6BDE"/>
<path d="M61.0856 70.454C71.7502 70.454 78.1767 65.2323 78.1767 56.6195C78.1767 50.1092 73.5913 45.3959 66.7826 44.6498V44.3786C71.7849 43.5648 75.7103 38.9194 75.7103 33.7315C75.7103 26.3396 69.8744 21.5244 60.9814 21.5244H40.9722V70.454H61.0856ZM48.7535 27.7297H59.1056C64.7332 27.7297 67.929 30.2388 67.929 34.7825C67.929 39.6315 64.2121 42.344 57.4729 42.344H48.7535V27.7297V27.7297ZM48.7535 64.2489V48.1425H59.036C66.4004 48.1425 70.2217 50.8551 70.2217 56.1449C70.2217 61.4345 66.5048 64.2489 59.4876 64.2489H48.7535V64.2489Z" stroke="#6C6BDE" stroke-width="0.225482"/>
</g>
</g>
<defs>
<filter id="filter0_d_454_77" x="37.2517" y="18.7063" width="44.6453" height="56.3697" filterUnits="userSpaceOnUse" color-interpolation-filters="sRGB">
<feFlood flood-opacity="0" result="BackgroundImageFix"/>
<feColorMatrix in="SourceAlpha" type="matrix" values="0 0 0 0 0 0 0 0 0 0 0 0 0 0 0 0 0 0 127 0" result="hardAlpha"/>
<feOffset dy="0.901927"/>
<feGaussianBlur stdDeviation="1.80385"/>
<feColorMatrix type="matrix" values="0 0 0 0 0 0 0 0 0 0 0 0 0 0 0 0 0 0 0.15 0"/>
<feBlend mode="normal" in2="BackgroundImageFix" result="effect1_dropShadow_454_77"/>
<feBlend mode="normal" in="SourceGraphic" in2="effect1_dropShadow_454_77" result="shape"/>
</filter>
<clipPath id="clip0_454_77">
<rect width="115.447" height="91.9966" fill="white" transform="translate(0.858643)"/>
</clipPath>
</defs>
</svg>
