<svg width="93" height="92" viewBox="0 0 93 92" fill="none" xmlns="http://www.w3.org/2000/svg">
<g clip-path="url(#clip0_454_80)">
<path fill-rule="evenodd" clip-rule="evenodd" d="M46.4929 0C21.0789 0 0.494629 20.5842 0.494629 45.9983C0.494629 66.3525 13.6616 83.5444 31.946 89.6391C34.2459 90.0416 35.1083 88.6617 35.1083 87.4542C35.1083 86.3617 35.0508 82.7394 35.0508 78.887C23.4938 81.0145 20.5039 76.0696 19.5839 73.4822C19.0664 72.1598 16.824 68.0774 14.8691 66.985C13.2592 66.1225 10.9592 63.9951 14.8116 63.9376C18.434 63.8801 21.0214 67.2725 21.8838 68.6524C26.0237 75.6097 32.6359 73.6547 35.2808 72.4473C35.6833 69.4574 36.8908 67.445 38.2132 66.295C27.9786 65.145 17.284 61.1777 17.284 43.5834C17.284 38.581 19.0664 34.4412 21.9988 31.2213C21.5388 30.0714 19.9289 25.3565 22.4588 19.0318C22.4588 19.0318 26.3112 17.8243 35.1083 23.7466C38.7882 22.7116 42.6981 22.1942 46.6079 22.1942C50.5178 22.1942 54.4276 22.7116 58.1075 23.7466C66.9046 17.7668 70.757 19.0318 70.757 19.0318C73.2869 25.3565 71.677 30.0714 71.217 31.2213C74.1494 34.4412 75.9318 38.5235 75.9318 43.5834C75.9318 61.2352 65.1797 65.145 54.9451 66.295C56.6125 67.7324 58.05 70.4923 58.05 74.8047C58.05 80.957 57.9925 85.9018 57.9925 87.4542C57.9925 88.6617 58.8549 90.0991 61.1549 89.6391C79.3242 83.5444 92.4912 66.295 92.4912 45.9983C92.4912 20.5842 71.907 0 46.4929 0Z" fill="white"/>
</g>
<defs>
<clipPath id="clip0_454_80">
<rect width="91.9966" height="91.9966" fill="white" transform="translate(0.494629)"/>
</clipPath>
</defs>
</svg>
