<svg width="92" height="92" viewBox="0 0 92 92" fill="none" xmlns="http://www.w3.org/2000/svg">
<path d="M6.00049 5.69531H85.7345V85.4293H6.00049V5.69531Z" fill="white"/>
<path d="M59.5621 67.9874C60.2415 69.3674 61.297 70.5273 62.6069 71.3334C63.9169 72.1395 65.428 72.5591 66.966 72.5437C70.0699 72.5437 72.0547 70.9917 72.0547 68.8417C72.0547 66.2788 70.0158 65.3619 66.5987 63.8669L64.7249 63.0639C59.3144 60.7601 55.7264 57.8755 55.7264 51.7758C55.7264 46.1574 59.9978 41.8774 66.6983 41.8774C68.8674 41.7208 71.0346 42.2062 72.9295 43.2732C74.8245 44.3402 76.3634 45.9415 77.3542 47.8774L71.4966 51.622C71.1151 50.6622 70.4508 49.8409 69.5918 49.2673C68.7328 48.6936 67.7197 48.3946 66.6869 48.4099C66.2363 48.3648 65.7813 48.414 65.3507 48.5545C64.9202 48.695 64.5237 48.9236 64.1864 49.2258C63.8491 49.528 63.5785 49.8971 63.3917 50.3097C63.205 50.7223 63.1062 51.1692 63.1018 51.622C63.1018 53.8688 64.4943 54.7801 67.7092 56.1783L69.583 56.9813C75.9503 59.7122 79.5497 62.4943 79.5497 68.7506C79.5497 75.4967 74.2503 79.1929 67.134 79.1929C64.3613 79.3696 61.5967 78.7401 59.1738 77.3803C56.7509 76.0206 54.7733 73.9887 53.4796 71.5299L59.5621 67.9874ZM33.0933 68.6367C34.2694 70.724 35.3401 72.4896 37.9144 72.4896C40.3747 72.4896 41.9295 71.527 41.9295 67.7824V42.3045H49.4217V67.8821C49.4217 75.639 44.8655 79.1701 38.2333 79.1701C35.889 79.2983 33.5608 78.714 31.5547 77.4942C29.5486 76.2744 27.9586 74.4761 26.9937 72.3358L33.0933 68.6367Z" fill="#6C6BDE"/>
</svg>
