<svg width="103" height="92" viewBox="0 0 103 92" fill="none" xmlns="http://www.w3.org/2000/svg">
<g clip-path="url(#clip0_454_101)">
<path d="M84.5532 29.5051C83.4644 29.1315 82.3662 28.7854 81.2599 28.4672C81.4458 27.7078 81.6169 26.9576 81.7687 26.2206C84.2619 14.1182 82.632 4.36831 77.065 1.15817C71.7274 -1.91928 62.9983 1.28966 54.1824 8.96211C53.3135 9.71962 52.464 10.499 51.6345 11.2994C51.0792 10.7671 50.5141 10.2452 49.9395 9.73387C40.6999 1.53026 31.4388 -1.92727 25.8778 1.29206C20.545 4.3791 18.9659 13.5447 21.2105 25.0144C21.4338 26.1504 21.6859 27.2805 21.9667 28.4036C20.6557 28.7761 19.3908 29.1726 18.1802 29.5946C7.34756 33.3715 0.429688 39.2902 0.429688 45.4295C0.429688 51.7703 7.85634 58.1302 19.139 61.9866C20.0537 62.298 20.976 62.5865 21.9051 62.8519C21.6034 64.0616 21.3355 65.2794 21.1018 66.5041C18.9619 77.7747 20.633 86.7237 25.9514 89.7912C31.4444 92.959 40.664 89.7033 49.6409 81.8558C50.3689 81.2178 51.0808 80.5617 51.776 79.8882C52.6742 80.7549 53.5965 81.5964 54.5417 82.4117C63.2377 89.8943 71.8258 92.9158 77.139 89.8399C82.6268 86.663 84.4105 77.0493 82.0949 65.353C81.9124 64.4367 81.7079 63.5249 81.4814 62.6185C82.1288 62.4266 82.7643 62.2292 83.3838 62.0238C95.1133 58.1378 102.745 51.855 102.745 45.4295C102.745 39.2678 95.6037 33.3091 84.5532 29.5051V29.5051ZM82.0093 57.8752C81.4498 58.0603 80.8759 58.2389 80.2907 58.4128C78.9958 54.3134 77.2485 49.9546 75.1098 45.4507C77.1506 41.0543 78.8308 36.7511 80.0893 32.6785C81.1361 32.9814 82.1516 33.3008 83.1308 33.6377C92.599 36.8974 98.3742 41.7162 98.3742 45.4295C98.3742 49.3846 92.1369 54.5192 82.0093 57.8752V57.8752ZM77.8072 66.2019C78.8312 71.3736 78.977 76.0498 78.2988 79.7055C77.6897 82.9904 76.4643 85.1802 74.9488 86.0575C71.7246 87.9239 64.8292 85.4979 57.3925 79.0984C56.5134 78.3404 55.6555 77.5581 54.8198 76.7524C57.7031 73.5994 60.5843 69.934 63.3963 65.863C68.3426 65.4242 73.0156 64.7064 77.2533 63.7268C77.4574 64.5473 77.6421 65.3726 77.8072 66.2019V66.2019ZM35.3112 85.7349C32.161 86.8472 29.6519 86.8792 28.1351 86.0047C24.9078 84.1435 23.5661 76.9578 25.3962 67.3194C25.6138 66.1804 25.8628 65.0477 26.1432 63.9226C30.3341 64.8498 34.9731 65.5165 39.931 65.9186C42.7622 69.9021 45.7266 73.5634 48.7141 76.7696C48.0792 77.3839 47.4293 77.9825 46.7649 78.5649C42.795 82.0348 38.8171 84.4968 35.3112 85.7349V85.7349ZM20.553 57.8508C15.564 56.1454 11.4438 53.9293 8.61971 51.5109C6.08181 49.3379 4.80087 47.1801 4.80087 45.4295C4.80087 41.7038 10.3551 36.9517 19.619 33.722C20.7433 33.3303 21.9199 32.9606 23.1409 32.6137C24.4214 36.7783 26.1008 41.1327 28.1276 45.5358C26.0745 50.0041 24.3711 54.4281 23.0781 58.6418C22.2301 58.3989 21.3881 58.1351 20.553 57.8508V57.8508ZM25.5001 24.1747C23.5773 14.348 24.8543 6.93539 28.068 5.07493C31.4908 3.09337 39.0597 5.91863 47.0375 13.0024C47.5577 13.4653 48.0695 13.9377 48.5726 14.4192C45.5999 17.6113 42.6627 21.2455 39.8566 25.2055C35.0446 25.6515 30.4384 26.3677 26.2035 27.3273C25.9426 26.2826 25.7081 25.2316 25.5001 24.1751V24.1747ZM69.6344 35.0729C68.6341 33.3451 67.5967 31.639 66.523 29.9559C69.7874 30.3688 72.9153 30.9167 75.8524 31.5866C74.9708 34.413 73.8717 37.3678 72.5779 40.3973C71.6323 38.6031 70.6509 36.8279 69.6344 35.0729V35.0729ZM51.6365 17.543C53.6524 19.7272 55.6715 22.1656 57.6575 24.8114C53.6288 24.6211 49.5934 24.6203 45.5647 24.809C47.5527 22.1876 49.589 19.7524 51.6365 17.543ZM33.5231 35.1029C32.5193 36.8438 31.5562 38.6078 30.6347 40.3937C29.3621 37.375 28.273 34.4066 27.3838 31.5402C30.3029 30.8872 33.416 30.3532 36.6597 29.9479C35.574 31.6413 34.5281 33.36 33.5231 35.1025V35.1029ZM36.7528 61.222C33.4016 60.848 30.2418 60.3416 27.3234 59.7061C28.2267 56.7885 29.3397 53.757 30.6399 50.6736C31.565 52.4607 32.5321 54.2259 33.5403 55.9676C34.577 57.7581 35.6505 59.5119 36.7528 61.222ZM51.7572 73.6238C49.6853 71.3888 47.619 68.9161 45.6011 66.2567C47.5603 66.3334 49.5574 66.3726 51.5873 66.3726C53.6728 66.3726 55.7343 66.3258 57.7634 66.2355C55.7711 68.9428 53.7595 71.4192 51.7572 73.6238ZM72.6191 50.5161C73.9868 53.6335 75.1394 56.649 76.0547 59.5167C73.0883 60.1937 69.8854 60.7388 66.5106 61.1437C67.592 59.4293 68.6392 57.6936 69.6516 55.9376C70.6808 54.1527 71.6703 52.3451 72.6191 50.5161V50.5161ZM65.8655 53.7538C64.3157 56.4461 62.6787 59.0874 60.9572 61.6733C57.8388 61.8941 54.7135 62.0038 51.5873 62.0022C48.4032 62.0022 45.3061 61.9031 42.3238 61.7096C40.5573 59.1297 38.8891 56.4839 37.3227 53.7778H37.3231C35.7641 51.0861 34.3079 48.3361 32.9576 45.5338C34.3044 42.7309 35.7562 39.9796 37.3099 37.2859L37.3095 37.2863C38.8627 34.5918 40.5175 31.9573 42.2706 29.3884C45.3133 29.1582 48.4335 29.0383 51.5869 29.0383H51.5873C54.7551 29.0383 57.8793 29.1594 60.9212 29.3912C62.6566 31.9562 64.3009 34.5817 65.8511 37.2627C67.41 39.9505 68.881 42.6884 70.2619 45.4719C68.8952 48.2838 67.4288 51.0462 65.8655 53.7538V53.7538ZM74.882 4.94464C78.308 6.9206 79.6405 14.8888 77.4879 25.3381C77.3504 26.0048 77.1961 26.6838 77.0283 27.3725C72.783 26.3925 68.1736 25.6639 63.3476 25.2111C60.5363 21.2076 57.6231 17.5678 54.6987 14.4168C55.4652 13.678 56.2498 12.9584 57.052 12.2586C64.6057 5.68522 71.6655 3.08977 74.882 4.94464V4.94464ZM51.5873 36.2931C56.6331 36.2931 60.7238 40.3837 60.7238 45.4295C60.7238 50.4753 56.6331 54.566 51.5873 54.566C46.5415 54.566 42.4509 50.4753 42.4509 45.4295C42.4509 40.3837 46.5415 36.2931 51.5873 36.2931V36.2931Z" fill="white"/>
</g>
<defs>
<clipPath id="clip0_454_101">
<rect width="102.315" height="91.1245" fill="white" transform="translate(0.429688)"/>
</clipPath>
</defs>
</svg>
