<svg width="65" height="92" viewBox="0 0 65 92" fill="none" xmlns="http://www.w3.org/2000/svg">
<g clip-path="url(#clip0_454_95)">
<path d="M32.5092 90.8947L6.21133 83.5941L0.35083 17.8633H64.7464L58.8798 83.584L32.5092 90.8947V90.8947Z" fill="white"/>
<path d="M53.8573 79.3988L58.8705 23.2373H32.5486V85.3062L53.8573 79.3988V79.3988Z" fill="white"/>
<path d="M13.7857 47.6157L14.5081 55.6773H32.5485V47.6157H13.7857ZM12.3337 31.2988L13.0665 39.3604H32.5485V31.2988H12.3337V31.2988ZM32.5485 68.5526L32.5132 68.562L23.535 66.1377L22.961 59.7082H14.8683L15.9977 72.3662L32.5114 76.9502L32.5485 76.9401V68.5526Z" fill="#6C6BDE"/>
<path d="M15.5061 0H25.2698V4.08319H19.5893V8.16638H25.2703V12.2493H15.5061V0ZM27.2228 0H36.9868V3.55058H31.306V4.26064H36.9868V12.427H27.2231V8.69848H32.9038V7.98842H27.2225V0H27.2228ZM38.9397 0H48.7037V3.55058H43.0229V4.26064H48.7037V12.427H38.9397V8.69848H44.6205V7.98842H38.94V0H38.9397Z" fill="white"/>
<path d="M51.2599 47.6157L52.7151 31.2988H32.5208V39.3604H43.8803L43.1467 47.6157H32.5208V55.6773H42.4478L41.5118 66.1326L32.5205 68.5594V76.9464L49.0474 72.3662L49.1685 71.0041L51.0632 49.7805L51.2599 47.6157V47.6157Z" fill="#6C6BDE"/>
</g>
<defs>
<clipPath id="clip0_454_95">
<rect width="64.6202" height="91.1245" fill="white" transform="translate(0.238525)"/>
</clipPath>
</defs>
</svg>
