<svg width="19" height="28" viewBox="0 0 19 28" fill="none" xmlns="http://www.w3.org/2000/svg">
<path d="M11.3465 15.7985L11.3465 15.7985L17.0398 17.842C17.2115 17.9078 17.3577 18.0268 17.4571 18.1816C17.5574 18.3378 17.6047 18.5223 17.5918 18.7075L17.5899 18.7353L17.5899 18.7362L15.8964 26.1838C15.8321 26.3463 15.7223 26.4872 15.58 26.5894C15.4287 26.6978 15.2479 26.7575 15.0619 26.7604H7.88148H7.88091C7.71955 26.7605 7.56114 26.7171 7.42238 26.6347L7.42228 26.6347C7.28363 26.5524 7.16968 26.4342 7.09251 26.2924L7.09056 26.2889L2.89213 18.6755C2.89174 18.6748 2.89135 18.6741 2.89096 18.6734C2.81653 18.535 2.77916 18.3799 2.78242 18.223L2.78243 18.2229C2.78568 18.0652 2.8299 17.911 2.91074 17.7755C2.99166 17.6399 3.10635 17.5278 3.24353 17.45L3.24364 17.45C3.38082 17.3722 3.536 17.3314 3.69386 17.3316L3.70155 17.3316L3.70925 17.3315L4.81783 17.3102C4.96276 17.3097 5.10606 17.3411 5.23763 17.4022C5.36407 17.461 5.47651 17.5459 5.56759 17.651L6.44422 18.8586L7.05118 18.4181L6.44422 18.8586C6.88247 19.4624 7.83736 19.1525 7.83736 18.4063V8.9508C7.83736 8.55304 7.99535 8.17162 8.27653 7.89047L8.27657 7.89044C8.55783 7.60917 8.93928 7.45117 9.33699 7.45117C9.7347 7.45117 10.1161 7.60917 10.3974 7.89044C10.6786 8.17163 10.8366 8.55308 10.8366 8.9508V15.0738C10.8366 15.3988 11.0406 15.6887 11.3465 15.7985Z" stroke="white" stroke-width="1.5"/>
<path d="M2.7059 13.9C2.83929 13.8366 2.95889 13.7474 3.05783 13.6377C3.15677 13.5279 3.23312 13.3998 3.28254 13.2605C3.33195 13.1213 3.3534 12.9737 3.34579 12.8262C3.33811 12.6786 3.30147 12.5341 3.23794 12.4007C2.80965 11.4986 2.58943 10.5118 2.59341 9.51328C2.59341 7.72331 3.30444 6.00673 4.57015 4.74102C5.83581 3.47537 7.55244 2.76433 9.34235 2.76433C11.1323 2.76433 12.8489 3.47537 14.1145 4.74102C15.3803 6.00673 16.0913 7.72331 16.0913 9.51328C16.0944 10.5133 15.8726 11.5013 15.4423 12.404C15.3153 12.6736 15.3005 12.9826 15.4011 13.263C15.5017 13.5435 15.7094 13.7726 15.9788 13.9C16.2492 14.0216 16.5559 14.034 16.8353 13.9349C17.1146 13.8358 17.3449 13.6327 17.4782 13.368C18.0503 12.1637 18.3451 10.8465 18.3409 9.51328C18.3409 7.12667 17.3929 4.83788 15.7053 3.15027C14.0177 1.46271 11.7289 0.514704 9.34235 0.514648C6.9558 0.514704 4.66696 1.46271 2.9794 3.15027C1.29184 4.83788 0.343777 7.12667 0.343777 9.51328C0.340472 10.848 0.63683 12.1664 1.211 13.3714C1.33985 13.639 1.56938 13.8449 1.84949 13.9439C2.12954 14.043 2.43744 14.0272 2.7059 13.9Z" fill="white"/>
</svg>
