<svg width="31" height="30" viewBox="0 0 31 30" fill="none" xmlns="http://www.w3.org/2000/svg">
<path d="M13.502 5.99994C12.3575 5.99994 11.2895 6.31944 10.379 6.87594C10.2848 6.37256 10.1133 5.88679 9.87045 5.43594C11.0124 4.80399 12.2995 4.48098 13.6045 4.49882C14.9095 4.51667 16.1873 4.87475 17.3115 5.53769C18.4358 6.20063 19.3675 7.14546 20.0148 8.27882C20.662 9.41217 21.0023 10.6948 21.002 11.9999H24.7535C25.3499 12.0003 25.9218 12.2376 26.3435 12.6595C26.7651 13.0814 27.002 13.6535 27.002 14.2499V23.2499C27.002 23.8467 26.7649 24.419 26.3429 24.8409C25.921 25.2629 25.3487 25.4999 24.752 25.4999H15.752C15.1552 25.4999 14.5829 25.2629 14.161 24.8409C13.739 24.419 13.502 23.8467 13.502 23.2499V19.4999C12.4585 19.5013 11.4264 19.2841 10.472 18.8624C10.4915 18.3524 10.502 17.8169 10.502 17.2499V17.1974C11.384 17.7074 12.4085 17.9999 13.502 17.9999V14.2499C13.502 13.6532 13.739 13.0809 14.161 12.6589C14.5829 12.237 15.1552 11.9999 15.752 11.9999H19.502C19.502 10.4086 18.8698 8.88252 17.7446 7.7573C16.6194 6.63208 15.0933 5.99994 13.502 5.99994ZM20.852 13.4999C20.5569 14.9408 19.8452 16.2633 18.8053 17.3032C17.7653 18.3432 16.4428 19.0549 15.002 19.3499V23.2499C15.002 23.4489 15.081 23.6396 15.2216 23.7803C15.3623 23.9209 15.553 23.9999 15.752 23.9999H24.752C24.9509 23.9999 25.1416 23.9209 25.2823 23.7803C25.4229 23.6396 25.502 23.4489 25.502 23.2499V14.2499C25.502 14.051 25.4229 13.8603 25.2823 13.7196C25.1416 13.579 24.9509 13.4999 24.752 13.4999H20.852ZM19.313 13.4999H15.752C15.553 13.4999 15.3623 13.579 15.2216 13.7196C15.081 13.8603 15.002 14.051 15.002 14.2499V17.8109C16.0397 17.5421 16.9866 17.0006 17.7446 16.2426C18.5026 15.4846 19.0441 14.5377 19.313 13.4999V13.4999ZM6.87345 3.18744C6.99796 3.29634 7.08297 3.44335 7.11525 3.60558C7.14754 3.76781 7.12528 3.93617 7.05195 4.08444C7.03925 4.12832 7.03269 4.17376 7.03245 4.21944C7.03245 4.31394 7.05645 4.49394 7.28295 4.71894C7.39245 4.82844 7.47645 4.90644 7.56795 4.99194C7.64295 5.06094 7.72245 5.13294 7.82295 5.23194C8.01795 5.41794 8.22345 5.63694 8.40795 5.91144C8.79045 6.48594 9.00195 7.20444 9.00195 8.24994C9.00195 9.52944 8.52795 10.6199 7.78845 11.2889L7.88445 11.3999C8.30445 11.9159 8.54895 12.5849 8.70195 13.2449C9.00195 14.5499 9.00195 16.1189 9.00195 17.2124V17.2499C9.00195 21.4304 8.43345 23.8019 7.80795 25.1579C7.49295 25.8404 7.15845 26.2754 6.86895 26.5484C6.75126 26.6614 6.62147 26.761 6.48195 26.8454C6.41807 26.8839 6.35138 26.9175 6.28245 26.9459C6.28245 26.9459 6.11295 26.9999 6.00195 26.9999C5.89095 26.9999 5.72145 26.9459 5.72145 26.9459C5.65178 26.9192 5.58494 26.8855 5.52195 26.8454C5.38243 26.761 5.25265 26.6614 5.13495 26.5484C4.84545 26.2739 4.51095 25.8404 4.19595 25.1579C3.57045 23.8019 3.00195 21.4304 3.00195 17.2499V17.2124C3.00195 16.1174 3.00195 14.5499 3.30195 13.2449C3.45495 12.5849 3.69945 11.9159 4.11945 11.3999C4.14945 11.3624 4.18245 11.3249 4.21545 11.2889C3.47595 10.6199 3.00195 9.52944 3.00195 8.24994C3.00195 7.76094 3.13245 7.17744 3.31245 6.63894C3.49245 6.09894 3.74445 5.54094 4.03545 5.09094C4.38195 4.50594 4.86945 4.01544 5.24745 3.68544C5.45469 3.50318 5.67096 3.33147 5.89545 3.17094L5.94045 3.14094L5.95395 3.13044L5.95845 3.12744L5.96145 3.12594C6.099 3.03425 6.26298 2.99058 6.42791 3.0017C6.59283 3.01282 6.74946 3.07812 6.87345 3.18744V3.18744ZM6.00195 10.4999C6.58245 10.4984 7.50195 9.85494 7.50195 8.24994C7.50195 7.42044 7.33845 7.01394 7.15845 6.74394C7.04901 6.58624 6.92277 6.44089 6.78195 6.31044L6.59595 6.13644C6.47445 6.02244 6.33195 5.89044 6.22095 5.78094C6.0569 5.61859 5.91606 5.43435 5.80245 5.23344C5.61152 5.4342 5.44349 5.65556 5.30145 5.89344C5.09145 6.21594 4.88745 6.65844 4.73595 7.11444C4.57995 7.57944 4.50195 7.99044 4.50195 8.24994C4.50195 9.85794 5.42445 10.4999 6.00195 10.4999H6.00495H6.00195ZM5.28195 12.3479C5.06895 12.6074 4.89195 13.0214 4.76295 13.5824C4.50495 14.7044 4.50195 16.1144 4.50195 17.2499C4.50195 21.3194 5.05845 23.4479 5.55795 24.5294C5.72295 24.8849 5.87745 25.1219 6.00195 25.2794C6.17918 25.0479 6.32823 24.7962 6.44595 24.5294C6.94545 23.4479 7.50195 21.3194 7.50195 17.2499C7.50195 16.1144 7.49895 14.7044 7.23945 13.5824C7.11045 13.0214 6.93345 12.6074 6.72195 12.3479C6.63922 12.2358 6.53042 12.1456 6.40498 12.0849C6.27953 12.0243 6.1412 11.9951 6.00195 11.9999H5.99895C5.86018 11.9955 5.72241 12.0248 5.59751 12.0855C5.47261 12.1461 5.36431 12.2362 5.28195 12.3479V12.3479Z" fill="white"/>
</svg>
